# Blender v2.74 (sub 0) OBJ File: 'bolt.blend'
# www.blender.org
mtllib bolt.mtl
o Cone
v 0.000000 1.093584 0.625001
v 0.290452 1.093584 0.553411
v 0.514366 1.093584 0.355041
v 0.000000 -1.022362 0.000000
v 0.620444 1.093584 0.075335
v 0.584386 1.093584 -0.221629
v 0.414452 1.093584 -0.467820
v 0.149573 1.093584 -0.606840
v -0.149572 1.093584 -0.606840
v -0.414452 1.093584 -0.467820
v -0.584386 1.093584 -0.221629
v -0.620444 1.093584 0.075335
v -0.514366 1.093584 0.355041
v -0.290452 1.093584 0.553411
v 0.000000 2.021455 0.479620
v 0.222891 2.021455 0.424683
v 0.394720 2.021455 0.272455
v 0.476124 2.021455 0.057812
v 0.448453 2.021455 -0.170076
v 0.318047 2.021455 -0.359001
v 0.114781 2.021455 -0.465684
v -0.114781 2.021455 -0.465684
v -0.318047 2.021455 -0.359001
v -0.448453 2.021455 -0.170076
v -0.476123 2.021455 0.057812
v -0.394720 2.021455 0.272455
v -0.222891 2.021455 0.424683
v 0.000000 2.328226 -0.000000
v -0.326877 1.645125 0.622814
v 0.000000 1.645125 0.703381
v -0.578872 1.645125 0.399566
v -0.698253 1.645125 0.084783
v -0.657673 1.645125 -0.249423
v -0.466428 1.645125 -0.526489
v -0.168330 1.645125 -0.682943
v 0.168330 1.645125 -0.682943
v 0.466428 1.645125 -0.526489
v 0.657673 1.645125 -0.249423
v 0.698253 1.645125 0.084783
v 0.578872 1.645125 0.399566
v 0.326878 1.645125 0.622813
v 0.235917 0.343784 0.748918
v 0.512275 0.865326 0.578239
v -0.682491 0.729137 0.240272
v -0.635158 0.544751 -0.438418
v 0.000000 0.733351 -0.780638
v 0.742166 0.656454 -0.096298
v 0.609320 0.432428 -0.495516
v -0.479615 0.609042 0.541374
vt 0.354302 0.531675
vt 0.512664 0.062605
vt 0.423240 0.531675
vt 0.512664 0.531675
vt 0.602087 0.531675
vt 0.321643 0.531675
vt 0.332744 0.531675
vt 0.385063 0.531675
vt 0.466613 0.531675
vt 0.558713 0.531675
vt 0.640264 0.531675
vt 0.692583 0.531675
vt 0.703684 0.531675
vt 0.671025 0.531675
vt 0.412025 0.701482
vt 0.512664 0.701482
vt 0.512664 0.817346
vt 0.444041 0.817346
vt 0.334442 0.701482
vt 0.391138 0.817346
vt 0.297687 0.701482
vt 0.366076 0.817346
vt 0.310181 0.701482
vt 0.374595 0.817346
vt 0.369061 0.701482
vt 0.414744 0.817346
vt 0.460838 0.701482
vt 0.477325 0.817346
vt 0.564489 0.701482
vt 0.548002 0.817346
vt 0.656266 0.701482
vt 0.610583 0.817346
vt 0.715146 0.701482
vt 0.650732 0.817346
vt 0.727640 0.701482
vt 0.659251 0.817346
vt 0.690885 0.701482
vt 0.634189 0.817346
vt 0.613302 0.701482
vt 0.581287 0.817346
vt 0.512664 0.911794
vt 0.670381 0.461399
vt 0.302540 0.419470
vt 0.365001 0.382495
vt 0.741160 0.397092
vt 0.512664 0.420767
vt 0.317113 0.362701
vt 0.585297 0.300828
vt 0.700260 0.328119
vn -0.637400 -0.275700 0.719500
vn 0.230000 -0.275700 0.933300
vn -0.898800 -0.275700 0.340900
vn -0.954200 -0.275700 -0.115900
vn -0.791100 -0.275700 -0.546100
vn -0.446700 -0.275700 -0.851100
vn 0.000000 -0.275700 -0.961200
vn 0.446700 -0.275700 -0.851100
vn 0.791100 -0.275700 -0.546100
vn 0.954200 -0.275700 -0.115900
vn 0.898800 -0.275700 0.340900
vn -0.230000 -0.275700 0.933300
vn 0.637400 -0.275700 0.719500
vn -0.207300 0.500000 0.840900
vn -0.574300 0.500000 0.648200
vn -0.809800 0.500000 0.307100
vn -0.859700 0.500000 -0.104400
vn -0.712700 0.500000 -0.492000
vn -0.402500 0.500000 -0.766800
vn 0.000000 0.500000 -0.866000
vn 0.402500 0.500000 -0.766800
vn 0.712700 0.500000 -0.492000
vn 0.859700 0.500000 -0.104400
vn 0.809800 0.500000 0.307100
vn 0.574300 0.500000 0.648200
vn 0.207300 0.500000 0.840900
vn -0.131700 0.835100 0.534100
vn -0.364800 0.835100 0.411800
vn -0.514400 0.835100 0.195100
vn -0.546100 0.835100 -0.066300
vn -0.452700 0.835100 -0.312500
vn -0.255700 0.835100 -0.487100
vn 0.000000 0.835100 -0.550100
vn 0.255700 0.835100 -0.487100
vn 0.452700 0.835100 -0.312500
vn 0.546100 0.835100 -0.066300
vn 0.514400 0.835100 0.195100
vn 0.364800 0.835100 0.411800
vn 0.131700 0.835100 0.534100
vn 0.658800 0.114100 0.743600
vn -0.934100 0.044100 0.354300
vn 0.926200 -0.136700 0.351300
vn -0.662600 0.038900 0.747900
vn 0.460400 -0.136700 -0.877100
vn 0.990500 0.066000 -0.120300
vn -0.460400 -0.136700 -0.877100
vn 0.000000 0.106500 -0.994300
vn -0.983400 -0.136700 -0.119400
vn -0.820300 0.080500 -0.566200
vn -0.237100 -0.136700 0.961800
vn 0.238600 0.077100 0.968000
vn -0.695200 -0.101100 0.711600
vn 0.997500 -0.068100 0.017300
vn -0.232900 -0.229500 -0.945000
vn -0.536700 -0.587400 -0.605800
vn 0.989100 -0.107500 -0.100700
vn -0.219200 -0.107500 0.969700
vn 0.890600 -0.304500 -0.337800
vn -0.372700 -0.117900 0.920400
vn -0.828700 -0.107500 -0.549300
vn 0.788200 -0.287800 0.544000
vn -0.888200 -0.095400 0.449500
vn 0.105300 -0.095400 -0.989900
vn 0.000000 -0.434500 0.900700
vn -0.847700 -0.100700 -0.520800
vn 0.847700 -0.100700 -0.520800
vn -0.944400 -0.308000 0.114700
vn 0.429400 -0.102300 -0.897300
vn 0.663200 -0.106200 0.740900
vn 0.820200 0.082200 -0.566100
vn -0.795300 -0.257400 0.548900
vn -0.355400 -0.065700 -0.932400
vn 0.933400 -0.106800 0.342700
vn 0.644800 -0.233600 -0.727800
vn 0.214800 -0.108000 0.970700
vn -0.989500 -0.108000 -0.096200
usemtl None
s off
f 13/1/1 4/2/1 14/3/1
f 1/4/2 4/2/2 2/5/2
f 12/6/3 4/2/3 13/1/3
f 11/7/4 4/2/4 12/6/4
f 10/8/5 4/2/5 11/7/5
f 9/9/6 4/2/6 10/8/6
f 8/10/7 4/2/7 9/9/7
f 7/11/8 4/2/8 8/10/8
f 6/12/9 4/2/9 7/11/9
f 5/13/10 4/2/10 6/12/10
f 3/14/11 4/2/11 5/13/11
f 14/3/12 4/2/12 1/4/12
f 2/5/13 4/2/13 3/14/13
f 29/15/14 30/16/14 15/17/14 27/18/14
f 31/19/15 29/15/15 27/18/15 26/20/15
f 32/21/16 31/19/16 26/20/16 25/22/16
f 33/23/17 32/21/17 25/22/17 24/24/17
f 34/25/18 33/23/18 24/24/18 23/26/18
f 35/27/19 34/25/19 23/26/19 22/28/19
f 36/29/20 35/27/20 22/28/20 21/30/20
f 37/31/21 36/29/21 21/30/21 20/32/21
f 38/33/22 37/31/22 20/32/22 19/34/22
f 39/35/23 38/33/23 19/34/23 18/36/23
f 40/37/24 39/35/24 18/36/24 17/38/24
f 41/39/25 40/37/25 17/38/25 16/40/25
f 30/16/26 41/39/26 16/40/26 15/17/26
f 27/18/27 15/17/27 28/41/27
f 26/20/28 27/18/28 28/41/28
f 25/22/29 26/20/29 28/41/29
f 24/24/30 25/22/30 28/41/30
f 23/26/31 24/24/31 28/41/31
f 22/28/32 23/26/32 28/41/32
f 21/30/33 22/28/33 28/41/33
f 20/32/34 21/30/34 28/41/34
f 19/34/35 20/32/35 28/41/35
f 18/36/36 19/34/36 28/41/36
f 17/38/37 18/36/37 28/41/37
f 16/40/38 17/38/38 28/41/38
f 15/17/39 16/40/39 28/41/39
f 40/37/40 41/39/40 43/42/40
f 31/19/41 32/21/41 44/43/41
f 3/14/42 5/13/42 39/35/42 40/37/42
f 29/15/43 31/19/43 49/44/43
f 7/11/44 8/10/44 36/29/44 37/31/44
f 38/33/45 39/35/45 47/45/45
f 9/9/46 10/8/46 34/25/46 35/27/46
f 35/27/47 36/29/47 46/46/47
f 11/7/48 12/6/48 32/21/48 33/23/48
f 33/23/49 34/25/49 45/47/49
f 14/3/50 1/4/50 30/16/50 29/15/50
f 41/39/51 30/16/51 42/48/51
f 30/16/52 1/4/52 42/48/52
f 2/5/53 41/39/53 42/48/53
f 1/4/54 2/5/54 42/48/54
f 2/5/55 3/14/55 43/42/55
f 3/14/56 40/37/56 43/42/56
f 41/39/57 2/5/57 43/42/57
f 12/6/58 13/1/58 44/43/58
f 13/1/59 31/19/59 44/43/59
f 32/21/60 12/6/60 44/43/60
f 10/8/61 11/7/61 45/47/61
f 11/7/62 33/23/62 45/47/62
f 34/25/63 10/8/63 45/47/63
f 8/10/64 9/9/64 46/46/64
f 9/9/65 35/27/65 46/46/65
f 36/29/66 8/10/66 46/46/66
f 5/13/67 6/12/67 47/45/67
f 6/12/68 38/33/68 47/45/68
f 39/35/69 5/13/69 47/45/69
f 37/31/70 38/33/70 48/49/70
f 6/12/71 7/11/71 48/49/71
f 7/11/72 37/31/72 48/49/72
f 38/33/73 6/12/73 48/49/73
f 13/1/74 14/3/74 49/44/74
f 14/3/75 29/15/75 49/44/75
f 31/19/76 13/1/76 49/44/76
