# Blender v2.74 (sub 0) OBJ File: 'spesship.blend'
# www.blender.org
mtllib spesship.mtl
o Cylinder.002_Cylinder.003
v -3.069827 1.168716 -1.000000
v -2.246273 1.168716 -0.749832
v -3.069827 0.580931 -0.809017
v -2.246273 0.727976 -0.606627
v -3.069827 0.217660 -0.309017
v -2.246273 0.455583 -0.231711
v -3.069827 0.217660 0.309017
v -2.246273 0.455583 0.231711
v -3.069827 0.580931 0.809017
v -2.246273 0.727976 0.606627
v -3.069827 1.168716 1.000000
v -2.246273 1.168716 0.749832
v -3.069827 1.756501 0.809017
v -2.246273 1.609457 0.606627
v -3.069827 2.119773 0.309017
v -2.246273 1.881849 0.231711
v -3.069827 2.119773 -0.309017
v -2.246273 1.881849 -0.231711
v -3.069827 1.756501 -0.809017
v -2.246273 1.609456 -0.606627
v -1.324482 1.279982 4.281176
v -1.324482 1.170369 4.281176
v 2.301672 1.428453 0.904300
v 2.301672 1.021898 0.904300
v -2.565619 1.279982 4.281176
v -2.565619 1.170369 4.281176
v -2.301672 1.428453 0.904300
v -2.301672 1.021898 0.904300
v 2.816529 1.106088 2.176919
v -2.816529 1.106088 2.176919
v 2.816529 1.225139 2.013058
v -2.816529 1.225139 2.013058
v 2.816529 1.225139 1.810517
v -2.816529 1.225139 1.810517
v 2.816529 1.106088 1.646658
v -2.816529 1.106088 1.646658
v 2.816529 0.913460 1.584069
v -2.816529 0.913459 1.584069
v 2.816529 0.720832 1.646658
v -2.816529 0.720831 1.646658
v -2.816530 0.913459 -2.239507
v 2.816529 0.913460 -2.239507
v -2.816529 0.720831 -2.176919
v 2.816529 0.720832 -2.176919
v -2.816529 0.601780 -2.013059
v 2.816529 0.601781 -2.013059
v -2.816529 0.601780 -1.810517
v 2.816529 0.601781 -1.810517
v -2.816529 0.720831 -1.646658
v 2.816529 0.720832 -1.646658
v -2.816530 0.913459 -1.584069
v 2.816529 0.913460 -1.584069
v -2.816530 1.106088 -1.646658
v 2.816529 1.106089 -1.646658
v -2.816530 1.225139 -1.810517
v 2.816529 1.225139 -1.810517
v -2.816530 1.225139 -2.013059
v 2.816529 1.225139 -2.013059
v -2.816530 1.106088 -2.176919
v 2.816529 1.106088 -2.176919
v 2.816529 0.601781 1.810517
v -2.816529 0.601780 1.810517
v 2.816529 0.601781 2.013058
v -2.816529 0.601780 2.013058
v 2.816529 0.720832 2.176919
v -2.816529 0.720831 2.176919
v 2.816529 0.913460 2.239507
v -2.816529 0.913459 2.239507
v -2.301672 1.021898 -0.904300
v -2.301672 1.428453 -0.904300
v -2.565619 1.170369 -4.281176
v -2.565619 1.279983 -4.281176
v 2.301672 1.021899 -0.904300
v 2.301672 1.428453 -0.904300
v -1.324482 1.170369 -4.281176
v -1.324482 1.279983 -4.281176
v -1.073472 1.267198 0.000000
v -0.454206 1.740269 0.449917
v -1.310006 1.740269 0.727988
v -1.838925 1.740273 0.000000
v -1.310006 1.740269 -0.727988
v -0.454206 1.740269 -0.449917
v -0.836938 2.505733 0.727988
v -1.692738 2.505733 0.449917
v -1.692738 2.505733 -0.449917
v -0.836938 2.505733 -0.727988
v -0.308019 2.505730 0.000000
v -1.073472 2.978805 0.000000
v -1.212502 1.395008 0.427898
v -0.709479 1.395009 0.264453
v -0.848508 1.673073 0.692355
v -0.345485 1.673075 0.000000
v -0.709479 1.395009 -0.264453
v -1.523393 1.395011 0.000000
v -1.662427 1.673074 0.427899
v -1.212502 1.395008 -0.427898
v -1.662427 1.673074 -0.427899
v -0.848508 1.673073 -0.692355
v -0.259554 2.123001 0.264454
v -0.259554 2.123001 -0.264454
v -1.073472 2.123001 0.855803
v -0.570443 2.123001 0.692359
v -1.887390 2.123001 0.264454
v -1.576501 2.123001 0.692359
v -1.576501 2.123001 -0.692359
v -1.887390 2.123001 -0.264454
v -0.570443 2.123001 -0.692359
v -1.073472 2.123001 -0.855803
v -0.484517 2.572928 0.427899
v -1.298436 2.572929 0.692355
v -1.801459 2.572928 0.000000
v -1.298436 2.572929 -0.692355
v -0.484517 2.572928 -0.427899
v -0.934442 2.850994 0.427898
v -0.623551 2.850992 0.000000
v -1.437465 2.850994 0.264453
v -1.437465 2.850994 -0.264453
v -0.934442 2.850994 -0.427898
v 2.425893 1.228829 -1.222778
v 2.425893 0.272822 -0.762389
v 2.425893 0.036709 0.272094
v 4.871448 1.228829 0.000000
v 2.425893 0.698285 1.101685
v 2.425893 1.759372 1.101685
v 2.425893 2.420949 0.272094
v 2.425893 2.184835 -0.762389
v -2.360514 0.273229 1.000000
v -2.360515 2.273229 1.000000
v -2.360514 0.273229 -1.000000
v -2.360515 2.273229 -1.000000
v 2.360514 0.273229 1.000000
v 2.360514 2.273229 1.000000
v 2.360514 0.273229 -1.000000
v 2.360514 2.273229 -1.000000
vt 0.240644 0.614399
vt 0.240644 0.694188
vt 0.222867 0.694335
vt 0.216935 0.614594
vt 0.403097 0.644636
vt 0.395028 0.724229
vt 0.379720 0.724166
vt 0.382683 0.644552
vt 0.361030 0.724166
vt 0.357757 0.644552
vt 0.346097 0.724229
vt 0.337842 0.644636
vt 0.047418 0.624910
vt 0.041487 0.704617
vt 0.023709 0.704502
vt 0.023709 0.624757
vt 0.005931 0.704617
vt 0.000000 0.624910
vt 0.337842 0.644951
vt 0.329616 0.724643
vt 0.314683 0.724344
vt 0.317926 0.644552
vt 0.295993 0.724344
vt 0.293000 0.644552
vt 0.147278 0.699671
vt 0.165053 0.693985
vt 0.182828 0.699689
vt 0.193813 0.714603
vt 0.193813 0.733031
vt 0.182828 0.747934
vt 0.165053 0.753620
vt 0.147278 0.747917
vt 0.136293 0.733003
vt 0.136293 0.714574
vt 0.264353 0.614594
vt 0.258422 0.694335
vt 0.280685 0.724643
vt 0.272586 0.644952
vt 0.129417 0.676781
vt 0.114767 0.696672
vt 0.091061 0.704277
vt 0.067356 0.696690
vt 0.052705 0.676811
vt 0.052705 0.652232
vt 0.067356 0.632342
vt 0.091061 0.624737
vt 0.114767 0.632323
vt 0.129417 0.652202
vt 0.136293 0.025478
vt 0.136293 0.470181
vt 0.272586 0.119899
vt 0.272586 0.000000
vt 0.728033 0.929435
vt 0.732455 0.929435
vt 0.732454 0.809574
vt 0.728033 0.809574
vt 0.366310 0.605030
vt 0.382707 0.605030
vt 0.377084 0.470130
vt 0.372664 0.470130
vt 0.105411 0.487290
vt 0.110211 0.493807
vt 0.117978 0.496295
vt 0.125745 0.493804
vt 0.130545 0.487284
vt 0.130545 0.479227
vt 0.125745 0.472710
vt 0.117978 0.470222
vt 0.110211 0.472714
vt 0.105411 0.479233
vt 0.946690 0.544117
vt 0.953380 0.543989
vt 0.953380 0.000010
vt 0.946690 0.000138
vt 1.000000 0.000064
vt 0.992230 0.000000
vt 0.992230 0.544007
vt 1.000000 0.544071
vt 0.395273 0.522264
vt 0.403039 0.519777
vt 0.407839 0.513261
vt 0.407839 0.505204
vt 0.403039 0.498685
vt 0.395273 0.496193
vt 0.387507 0.498680
vt 0.382707 0.505196
vt 0.382707 0.513253
vt 0.387507 0.519772
vt 0.938522 0.544113
vt 0.938522 0.000134
vt 0.738443 0.455929
vt 0.722044 0.455929
vt 0.803576 0.455943
vt 0.787177 0.455943
vt 0.787177 0.900563
vt 0.803576 0.900563
vt 0.931995 0.543980
vt 0.931995 0.000000
vt 0.545171 0.469930
vt 0.545171 0.025389
vt 0.408878 0.000000
vt 0.408878 0.119856
vt 0.984460 0.544071
vt 0.984460 0.000064
vt 0.910609 0.000027
vt 0.910609 0.544205
vt 0.903919 0.544178
vt 0.903919 0.000000
vt 0.895750 0.544179
vt 0.895750 0.000001
vt 0.889224 0.544207
vt 0.889223 0.000029
vt 0.976690 0.544076
vt 0.976690 0.000000
vt 0.968920 0.544126
vt 0.968920 0.000050
vt 0.084275 0.512534
vt 0.082788 0.518150
vt 0.081491 0.510505
vt 0.081774 0.522097
vt 0.084689 0.523661
vt 0.084060 0.505670
vt 0.086945 0.510327
vt 0.086159 0.518040
vt 0.083435 0.541963
vt 0.083038 0.539089
vt 0.085931 0.540717
vt 0.051188 0.517140
vt 0.049449 0.510286
vt 0.052915 0.513162
vt 0.111975 0.524963
vt 0.112359 0.527718
vt 0.109546 0.526608
vt 0.059523 0.509019
vt 0.060098 0.503700
vt 0.062681 0.505469
vt 0.057073 0.521907
vt 0.057784 0.515873
vt 0.059811 0.520568
vt 0.048739 0.504259
vt 0.050578 0.500871
vt 0.051476 0.505591
vt 0.054346 0.520692
vt 0.109546 0.523282
vt 0.061251 0.512992
vt 0.058911 0.525301
vt 0.070287 0.509084
vt 0.072014 0.503657
vt 0.072214 0.510572
vt 0.072494 0.522087
vt 0.070742 0.516131
vt 0.073511 0.518215
vt 0.078229 0.521904
vt 0.075409 0.523667
vt 0.076882 0.518108
vt 0.062971 0.517006
vt 0.064708 0.510163
vt 0.065405 0.515991
vt 0.074659 0.500864
vt 0.077469 0.503483
vt 0.074783 0.505741
vt 0.077668 0.510398
vt 0.074998 0.512629
vt 0.079567 0.508788
vt 0.079567 0.515850
vt 0.056373 0.515996
vt 0.054636 0.509152
vt 0.057071 0.510178
vt 0.085931 0.537392
vt 0.088736 0.536459
vt 0.088358 0.539076
vt 0.062378 0.522421
vt 0.065405 0.504206
vt 0.106656 0.524975
vt 0.107057 0.522186
vt 0.107057 0.527844
vt 0.057071 0.521962
vt 0.054044 0.503747
vt 0.088736 0.541840
vt 0.063555 0.500871
vt 0.112359 0.522337
vt 0.055223 0.525305
vt 0.051765 0.522470
vt 0.083435 0.536306
vt 0.088846 0.515839
vt 0.087509 0.521910
vt 0.057071 0.510130
vt 0.086747 0.503468
vt 0.088846 0.508788
vt 0.083938 0.500864
vt 0.081293 0.503645
vt 0.079567 0.509089
vt 0.048738 0.516039
vt 0.080021 0.516125
vt 0.586299 0.461321
vt 0.618880 0.696894
vt 0.545171 0.469135
vt 0.663831 0.690414
vt 0.701981 0.455986
vt 0.701981 0.695975
vt 0.618880 0.456080
vt 0.525141 0.469930
vt 0.525141 0.707960
vt 0.482510 0.473673
vt 0.450039 0.704565
vt 0.482510 0.469930
vt 0.482510 0.710392
vt 0.625832 0.683922
vt 0.408878 0.696927
vt 0.291149 0.555570
vt 0.272586 0.517537
vt 0.291149 0.479513
vt 0.332860 0.470130
vt 0.366310 0.496454
vt 0.366310 0.538663
vt 0.332860 0.564972
vt 0.272586 0.565002
vt 0.353235 0.564972
vt 0.353235 0.644522
vt 0.272586 0.644552
vt 0.787177 0.000000
vt 0.706504 0.455929
vt 0.706504 0.000000
vt 0.216935 0.693945
vt 0.136293 0.693985
vt 0.136293 0.614439
vt 0.216935 0.614399
vt 0.706504 0.455986
vt 0.625832 0.455986
vt 0.625832 0.000000
vt 0.625832 0.456072
vt 0.545171 0.456080
vt 0.545171 0.000008
vt 0.867838 0.455943
vt 0.867838 0.000037
vn 0.277500 -0.296900 -0.913700
vn 0.277500 -0.777200 -0.564700
vn 0.277500 -0.960700 0.000000
vn 0.277500 -0.777200 0.564700
vn 0.277500 -0.296900 0.913700
vn 0.277500 0.296900 0.913700
vn 0.277500 0.777200 0.564700
vn 0.277500 0.960700 0.000000
vn 1.000000 -0.000000 0.000000
vn 0.277500 0.296900 -0.913700
vn 0.277500 0.777200 -0.564700
vn -1.000000 -0.000000 0.000000
vn 0.000000 -0.999000 0.043900
vn 0.000000 0.000000 1.000000
vn -0.997000 0.000000 -0.077900
vn -0.000000 0.809000 0.587800
vn -0.000000 0.309000 0.951100
vn -0.000000 1.000000 0.000000
vn 0.681500 0.000000 0.731800
vn 0.000000 0.000000 -1.000000
vn -0.000000 0.809000 -0.587800
vn -0.000000 0.999000 0.043900
vn 0.000000 -0.309000 -0.951100
vn 0.000000 -0.809000 -0.587800
vn 0.000000 -1.000000 0.000000
vn 0.000000 -0.809000 0.587800
vn 0.000000 -0.309000 0.951100
vn -0.000000 0.309000 -0.951100
vn -0.997000 0.000000 0.077900
vn 0.681500 0.000000 -0.731800
vn 0.000000 -0.999000 -0.043900
vn -0.000000 0.999000 -0.043900
vn 0.102400 -0.943500 0.315100
vn 0.700200 -0.661700 0.268000
vn -0.268000 -0.943500 0.194700
vn -0.268000 -0.943500 -0.194700
vn 0.102400 -0.943500 -0.315100
vn 0.905000 -0.330400 0.268000
vn 0.024700 -0.330400 0.943500
vn -0.889700 -0.330400 0.315100
vn -0.574600 -0.330400 -0.748800
vn 0.534600 -0.330400 -0.777900
vn 0.802600 -0.125600 0.583100
vn -0.306600 -0.125600 0.943500
vn -0.992100 -0.125600 0.000000
vn -0.306600 -0.125600 -0.943500
vn 0.802600 -0.125600 -0.583100
vn 0.408900 0.661700 0.628400
vn -0.471300 0.661700 0.583100
vn -0.700200 0.661700 -0.268000
vn 0.038500 0.661700 -0.748800
vn 0.724000 0.661700 -0.194700
vn 0.268000 0.943500 -0.194700
vn 0.491100 0.794700 -0.356800
vn 0.408900 0.661700 -0.628400
vn -0.102400 0.943500 -0.315100
vn -0.187600 0.794700 -0.577300
vn -0.471300 0.661700 -0.583100
vn -0.331300 0.943500 0.000000
vn -0.607100 0.794700 0.000000
vn -0.700200 0.661700 0.268000
vn -0.102400 0.943500 0.315100
vn -0.187600 0.794700 0.577300
vn 0.038500 0.661700 0.748800
vn 0.268000 0.943500 0.194700
vn 0.491100 0.794700 0.356800
vn 0.724000 0.661700 0.194700
vn 0.889700 0.330400 -0.315100
vn 0.794700 0.187600 -0.577300
vn 0.574600 0.330400 -0.748800
vn -0.024700 0.330400 -0.943500
vn -0.303500 0.187600 -0.934200
vn -0.534600 0.330400 -0.777900
vn -0.905000 0.330400 -0.268000
vn -0.982200 0.187600 0.000000
vn -0.905000 0.330400 0.268000
vn -0.534600 0.330400 0.777900
vn -0.303500 0.187600 0.934200
vn -0.024700 0.330400 0.943500
vn 0.574600 0.330400 0.748800
vn 0.794700 0.187600 0.577300
vn 0.889700 0.330400 0.315100
vn 0.306600 0.125600 -0.943500
vn 0.303500 -0.187600 -0.934200
vn 0.024700 -0.330400 -0.943500
vn -0.802600 0.125600 -0.583100
vn -0.794700 -0.187600 -0.577300
vn -0.889700 -0.330400 -0.315100
vn -0.802600 0.125600 0.583100
vn -0.794700 -0.187600 0.577300
vn -0.574600 -0.330400 0.748800
vn 0.306600 0.125600 0.943500
vn 0.303500 -0.187600 0.934200
vn 0.534600 -0.330400 0.777900
vn 0.992100 0.125600 0.000000
vn 0.982200 -0.187600 0.000000
vn 0.905000 -0.330400 -0.268000
vn 0.471300 -0.661700 -0.583100
vn 0.187600 -0.794700 -0.577300
vn -0.038500 -0.661700 -0.748800
vn -0.408900 -0.661700 -0.628400
vn -0.491100 -0.794700 -0.356800
vn -0.724000 -0.661700 -0.194700
vn -0.724000 -0.661700 0.194700
vn -0.491100 -0.794700 0.356800
vn -0.408900 -0.661700 0.628400
vn 0.700200 -0.661700 -0.268000
vn 0.607100 -0.794700 0.000000
vn 0.331300 -0.943500 0.000000
vn -0.038500 -0.661700 0.748800
vn 0.187600 -0.794700 0.577300
vn 0.471300 -0.661700 0.583100
vn 0.410700 0.888900 -0.202900
vn 0.410700 -0.395600 -0.821500
vn 0.410700 0.712800 0.568500
vn 0.410700 0.000000 0.911800
vn 0.410700 -0.712800 0.568500
vn 0.410700 0.395600 -0.821500
vn 0.410700 -0.888900 -0.202900
usemtl None
s off
f 1/1/1 2/2/1 4/3/1 3/4/1
f 3/5/2 4/6/2 6/7/2 5/8/2
f 5/8/3 6/7/3 8/9/3 7/10/3
f 7/10/4 8/9/4 10/11/4 9/12/4
f 9/13/5 10/14/5 12/15/5 11/16/5
f 11/16/6 12/15/6 14/17/6 13/18/6
f 13/19/7 14/20/7 16/21/7 15/22/7
f 15/22/8 16/21/8 18/23/8 17/24/8
f 4/25/9 2/26/9 20/27/9 18/28/9 16/29/9 14/30/9 12/31/9 10/32/9 8/33/9 6/34/9
f 19/35/10 20/36/10 2/2/10 1/1/10
f 17/24/11 18/23/11 20/37/11 19/38/11
f 1/39/12 3/40/12 5/41/12 7/42/12 9/43/12 11/44/12 13/45/12 15/46/12 17/47/12 19/48/12
f 28/49/13 24/50/13 22/51/13 26/52/13
f 25/53/14 26/54/14 22/55/14 21/56/14
f 27/57/15 28/58/15 26/59/15 25/60/15
f 68/61/12 30/62/12 32/63/12 34/64/12 36/65/12 38/66/12 40/67/12 62/68/12 64/69/12 66/70/12
f 32/71/16 30/72/16 29/73/16 31/74/16
f 30/75/17 68/76/17 67/77/17 29/78/17
f 65/79/9 63/80/9 61/81/9 39/82/9 37/83/9 35/84/9 33/85/9 31/86/9 29/87/9 67/88/9
f 34/89/18 32/71/18 31/74/18 33/90/18
f 21/56/19 22/55/19 24/91/19 23/92/19
f 23/93/20 24/94/20 28/95/20 27/96/20
f 36/97/21 34/89/21 33/90/21 35/98/21
f 23/99/22 27/100/22 25/101/22 21/102/22
f 41/76/23 42/77/23 44/103/23 43/104/23
f 43/105/24 44/106/24 46/107/24 45/108/24
f 45/108/25 46/107/25 48/109/25 47/110/25
f 47/110/26 48/109/26 50/111/26 49/112/26
f 49/104/27 50/103/27 52/113/27 51/114/27
f 51/114/17 52/113/17 54/115/17 53/116/17
f 53/97/16 54/98/16 56/90/16 55/89/16
f 55/89/18 56/90/18 58/74/18 57/71/18
f 44/79/9 42/88/9 60/87/9 58/86/9 56/85/9 54/84/9 52/83/9 50/82/9 48/81/9 46/80/9
f 59/75/28 60/78/28 42/77/28 41/76/28
f 57/71/21 58/74/21 60/73/21 59/72/21
f 41/61/12 43/70/12 45/69/12 47/68/12 49/67/12 51/66/12 53/65/12 55/64/12 57/63/12 59/62/12
f 40/104/23 38/114/23 37/113/23 39/103/23
f 66/105/26 64/108/26 63/107/26 65/106/26
f 68/76/27 66/104/27 65/103/27 67/77/27
f 38/114/28 36/116/28 35/115/28 37/113/28
f 62/110/24 40/112/24 39/111/24 61/109/24
f 64/108/25 62/110/25 61/109/25 63/107/25
f 70/57/29 72/60/29 71/59/29 69/58/29
f 72/53/20 76/56/20 75/55/20 71/54/20
f 76/56/30 74/92/30 73/91/30 75/55/30
f 74/93/14 70/96/14 69/95/14 73/94/14
f 69/49/31 71/52/31 75/51/31 73/50/31
f 74/99/32 76/102/32 72/101/32 70/100/32
f 77/117/33 90/118/33 89/119/33
f 78/120/34 90/118/34 92/121/34
f 77/117/35 89/119/35 94/122/35
f 77/117/36 94/122/36 96/123/36
f 77/117/37 96/123/37 93/124/37
f 78/125/38 92/126/38 99/127/38
f 79/128/39 91/129/39 101/130/39
f 80/131/40 95/132/40 103/133/40
f 81/134/41 97/135/41 105/136/41
f 82/137/42 98/138/42 107/139/42
f 78/140/43 99/141/43 102/142/43
f 79/128/44 101/130/44 104/143/44
f 80/131/45 103/133/45 106/144/45
f 81/134/46 105/136/46 108/145/46
f 82/137/47 107/139/47 100/146/47
f 83/147/48 109/148/48 114/149/48
f 84/150/49 110/151/49 116/152/49
f 85/153/50 111/154/50 117/155/50
f 86/156/51 112/157/51 118/158/51
f 87/159/52 113/160/52 115/161/52
f 115/161/53 118/162/53 88/163/53
f 115/161/54 113/160/54 118/162/54
f 113/160/55 86/164/55 118/162/55
f 118/162/56 117/155/56 88/163/56
f 118/162/57 112/165/57 117/155/57
f 112/165/58 85/153/58 117/155/58
f 117/155/59 116/152/59 88/163/59
f 117/155/60 111/154/60 116/152/60
f 111/154/61 84/150/61 116/152/61
f 116/152/62 114/149/62 88/163/62
f 116/152/63 110/151/63 114/149/63
f 110/166/64 83/167/64 114/168/64
f 114/149/65 115/161/65 88/163/65
f 114/149/66 109/148/66 115/161/66
f 109/148/67 87/159/67 115/161/67
f 100/169/68 113/170/68 87/171/68
f 100/146/69 107/139/69 113/172/69
f 107/139/70 86/156/70 113/172/70
f 108/145/71 112/157/71 86/156/71
f 108/145/72 105/136/72 112/157/72
f 105/136/73 85/173/73 112/157/73
f 106/144/74 111/174/74 85/175/74
f 106/144/75 103/133/75 111/174/75
f 103/133/76 84/176/76 111/174/76
f 104/143/77 110/166/77 84/177/77
f 104/143/78 101/130/78 110/166/78
f 101/130/79 83/167/79 110/166/79
f 102/142/80 109/178/80 83/167/80
f 102/142/81 99/141/81 109/178/81
f 99/127/82 87/171/82 109/179/82
f 107/139/83 108/145/83 86/156/83
f 107/139/84 98/138/84 108/145/84
f 98/138/85 81/134/85 108/145/85
f 105/136/86 106/180/86 85/173/86
f 105/136/87 97/135/87 106/180/87
f 97/181/88 80/131/88 106/144/88
f 103/182/89 104/143/89 84/177/89
f 103/182/90 95/183/90 104/143/90
f 95/183/91 79/128/91 104/143/91
f 101/130/92 102/142/92 83/167/92
f 101/130/93 91/129/93 102/142/93
f 91/129/94 78/140/94 102/142/94
f 99/127/95 100/169/95 87/171/95
f 99/127/96 92/126/96 100/169/96
f 92/126/97 82/184/97 100/169/97
f 93/124/98 98/185/98 82/186/98
f 93/124/99 96/123/99 98/185/99
f 96/187/100 81/134/100 98/138/100
f 96/123/101 97/188/101 81/189/101
f 96/123/102 94/122/102 97/188/102
f 94/122/103 80/190/103 97/188/103
f 94/122/104 95/191/104 80/190/104
f 94/122/105 89/119/105 95/191/105
f 89/119/106 79/192/106 95/191/106
f 92/121/107 93/124/107 82/186/107
f 92/121/108 90/118/108 93/124/108
f 90/118/109 77/117/109 93/124/109
f 89/193/110 91/129/110 79/128/110
f 89/119/111 90/118/111 91/194/111
f 90/118/112 78/120/112 91/194/112
f 125/195/113 122/196/113 126/197/113
f 119/198/114 122/199/114 120/200/114
f 124/201/115 122/196/115 125/195/115
f 123/202/116 122/203/116 124/204/116
f 121/205/117 122/206/117 123/207/117
f 126/208/118 122/199/118 119/198/118
f 120/209/119 122/206/119 121/205/119
f 119/210/12 120/211/12 121/212/12 123/213/12 124/214/12 125/215/12 126/216/12
f 128/217/12 130/218/12 129/219/12 127/220/12
f 130/221/20 134/94/20 133/222/20 129/223/20
f 134/224/9 132/225/9 131/226/9 133/227/9
f 132/223/14 128/228/14 127/229/14 131/230/14
f 127/231/25 129/232/25 133/233/25 131/230/25
f 132/234/18 134/94/18 130/221/18 128/235/18
